<svg viewBox="0 0 22 20" fill="none"
  xmlns="http://www.w3.org/2000/svg">
  <path d="M17.561 -7.62939e-06L12.6829 4.87804V15.6097L17.561 11.2195V-7.62939e-06ZM19.5122 3.90243V17.0732C18.439 16.7317 17.2683 16.5854 16.0976 16.5854C14.439 16.5854 12.0488 17.2195 10.7317 18.0488V4.87804C9.31707 3.80487 7.26829 3.41463 5.36585 3.41463C3.46341 3.41463 1.41463 3.80487 0 4.87804V19.1707C0 19.4146 0.243902 19.6585 0.487805 19.6585C0.585366 19.6585 0.634146 19.6097 0.731707 19.6097C2.04878 18.9756 3.95122 18.5366 5.36585 18.5366C7.26829 18.5366 9.31707 18.9268 10.7317 20C12.0488 19.1707 14.439 18.5366 16.0976 18.5366C17.7073 18.5366 19.3658 18.8293 20.7317 19.561C20.8293 19.6097 20.878 19.6097 20.9756 19.6097C21.2195 19.6097 21.4634 19.3658 21.4634 19.1219V4.87804C20.878 4.43902 20.2439 4.14633 19.5122 3.90243ZM8.78049 16.9854C7.56097 16.6732 6.34146 16.5854 5.36585 16.5854C4.33171 16.5854 3.10244 16.7707 1.95122 17.0732V5.98048C2.83902 5.59023 4.03902 5.36584 5.36585 5.36584C6.69268 5.36584 7.89268 5.59023 8.78049 5.98048V16.9854Z" />
</svg>
  