<svg viewBox="0 0 20 20" fill="none"
  xmlns="http://www.w3.org/2000/svg">
  <path d="M4.62 9.28998C6.06 12.12 8.38 14.44 11.21 15.88L13.41 13.68C13.69 13.4 14.08 13.32 14.43 13.43C15.55 13.8 16.75 14 18 14C18.2652 14 18.5196 14.1053 18.7071 14.2929C18.8946 14.4804 19 14.7348 19 15V18.5C19 18.7652 18.8946 19.0196 18.7071 19.2071C18.5196 19.3946 18.2652 19.5 18 19.5C13.4913 19.5 9.1673 17.7089 5.97918 14.5208C2.79107 11.3327 1 7.00866 1 2.49998C1 2.23477 1.10536 1.98041 1.29289 1.79288C1.48043 1.60534 1.73478 1.49998 2 1.49998H5.5C5.76522 1.49998 6.01957 1.60534 6.20711 1.79288C6.39464 1.98041 6.5 2.23477 6.5 2.49998C6.5 3.74998 6.7 4.94998 7.07 6.06998C7.18 6.41998 7.1 6.80998 6.82 7.08998L4.62 9.28998Z" />
</svg>
  