<svg viewBox="0 0 18 25" fill="none"
  xmlns="http://www.w3.org/2000/svg">
  <path d="M8.91562 5.74082C9.71127 5.74082 10.4743 6.05689 11.0369 6.6195C11.5996 7.18211 11.9156 7.94517 11.9156 8.74082C11.9156 9.13478 11.838 9.52489 11.6873 9.88887C11.5365 10.2528 11.3155 10.5836 11.0369 10.8621C10.7584 11.1407 10.4276 11.3617 10.0637 11.5125C9.6997 11.6632 9.30959 11.7408 8.91562 11.7408C8.11997 11.7408 7.35691 11.4247 6.7943 10.8621C6.23169 10.2995 5.91562 9.53647 5.91562 8.74082C5.91562 7.94517 6.23169 7.18211 6.7943 6.6195C7.35691 6.05689 8.11997 5.74082 8.91562 5.74082ZM8.91562 0.34082C11.1434 0.34082 13.28 1.22582 14.8553 2.80112C16.4306 4.37643 17.3156 6.513 17.3156 8.74082C17.3156 15.0408 8.91562 24.3408 8.91562 24.3408C8.91562 24.3408 0.515625 15.0408 0.515625 8.74082C0.515625 6.513 1.40062 4.37643 2.97593 2.80112C4.55123 1.22582 6.6878 0.34082 8.91562 0.34082ZM8.91562 2.74082C7.32432 2.74082 5.7982 3.37296 4.67298 4.49818C3.54777 5.6234 2.91562 7.14952 2.91562 8.74082C2.91562 9.94082 2.91562 12.3408 8.91562 20.3928C14.9156 12.3408 14.9156 9.94082 14.9156 8.74082C14.9156 7.14952 14.2835 5.6234 13.1583 4.49818C12.033 3.37296 10.5069 2.74082 8.91562 2.74082Z" />
</svg>
