<svg viewBox="0 0 20 20" fill="none"
  xmlns="http://www.w3.org/2000/svg">
  <path d="M18 10C18 8.41775 17.5308 6.87103 16.6518 5.55544C15.7727 4.23984 14.5233 3.21446 13.0615 2.60896C11.5997 2.00346 9.99113 1.84504 8.43928 2.15372C6.88743 2.4624 5.46197 3.22432 4.34315 4.34314C3.22433 5.46196 2.4624 6.88743 2.15372 8.43928C1.84504 9.99112 2.00347 11.5997 2.60897 13.0615C3.21447 14.5233 4.23985 15.7727 5.55544 16.6518C6.87103 17.5308 8.41775 18 10 18C12.1217 18 14.1566 17.1571 15.6569 15.6568C17.1571 14.1566 18 12.1217 18 10ZM20 10C20 11.9778 19.4135 13.9112 18.3147 15.5557C17.2159 17.2002 15.6541 18.4819 13.8268 19.2388C11.9996 19.9957 9.98891 20.1937 8.0491 19.8078C6.10929 19.422 4.32746 18.4696 2.92894 17.0711C1.53041 15.6725 0.578004 13.8907 0.192152 11.9509C-0.1937 10.0111 0.00433284 8.00042 0.761209 6.17316C1.51809 4.3459 2.79981 2.78412 4.4443 1.6853C6.08879 0.58649 8.02219 0 10 0C11.3132 0 12.6136 0.258658 13.8268 0.761204C15.0401 1.26375 16.1425 2.00035 17.0711 2.92893C17.9997 3.85752 18.7362 4.95991 19.2388 6.17316C19.7413 7.38642 20 8.68678 20 10ZM13.5 6C13.7967 6 14.0867 6.08797 14.3334 6.25279C14.58 6.41762 14.7723 6.65188 14.8858 6.92597C14.9994 7.20006 15.0291 7.50166 14.9712 7.79263C14.9133 8.08361 14.7704 8.35088 14.5607 8.56066C14.3509 8.77044 14.0836 8.9133 13.7926 8.97118C13.5017 9.02905 13.2001 8.99935 12.926 8.88582C12.6519 8.77229 12.4176 8.58003 12.2528 8.33335C12.088 8.08668 12 7.79667 12 7.5C12.0101 7.10536 12.1714 6.72969 12.4506 6.45055C12.7297 6.17141 13.1054 6.01012 13.5 6ZM8 7.5C8 7.79667 7.91203 8.08668 7.74721 8.33335C7.58238 8.58003 7.34812 8.77229 7.07403 8.88582C6.79994 8.99935 6.49834 9.02905 6.20737 8.97118C5.9164 8.9133 5.64912 8.77044 5.43934 8.56066C5.22956 8.35088 5.0867 8.08361 5.02882 7.79263C4.97095 7.50166 5.00065 7.20006 5.11418 6.92597C5.22771 6.65188 5.41997 6.41762 5.66665 6.25279C5.91332 6.08797 6.20333 6 6.5 6C6.89464 6.01012 7.27031 6.17141 7.54945 6.45055C7.82859 6.72969 7.98988 7.10536 8 7.5ZM15 13H11C10.2969 12.999 9.60586 13.1833 8.99666 13.5344C8.38746 13.8855 7.88157 14.3911 7.53 15L5.8 14C6.32694 13.0873 7.08497 12.3295 7.99782 11.8029C8.91067 11.2762 9.94613 10.9993 11 11H15V13Z" />
</svg>
