<svg viewBox="0 0 20 20" fill="none"
  xmlns="http://www.w3.org/2000/svg">
  <path d="M17.7 11.0772L16.9228 10.3L17.035 10.1878L17.8122 10.965L17.7 11.0772ZM16.7836 9.93636L16.7841 9.93687L16.7836 9.93636ZM10.6863 18.1H9.9V17.3128L15.06 12.1528L15.8383 12.931L10.6863 18.1ZM6.3636 15.4736L6.1 15.7372V16.11V17.1H1.9V16C1.9 15.4193 2.39348 14.652 3.74499 13.9762C5.02993 13.3337 6.86225 12.9085 8.93708 12.9001L6.3636 15.4736ZM6.80797 3.80794C7.38933 3.22658 8.17783 2.89997 9 2.89997C9.82217 2.89997 10.6107 3.22658 11.192 3.80794C11.7734 4.3893 12.1 5.1778 12.1 5.99997C12.1 6.82214 11.7734 7.61064 11.192 8.192C10.6107 8.77336 9.82217 9.09997 9 9.09997C8.17783 9.09997 7.38933 8.77336 6.80797 8.192C6.2266 7.61064 5.9 6.82214 5.9 5.99997C5.9 5.1778 6.2266 4.3893 6.80797 3.80794Z" stroke-width="1.8"/>
</svg>
  