<svg viewBox="0 0 20 20" fill="none"
  xmlns="http://www.w3.org/2000/svg">
  <path d="M18.1 10.75L19.5 12.16L12.97 18.75L9.5 15.25L10.9 13.84L12.97 15.92L18.1 10.75ZM8 2.24997C9.06086 2.24997 10.0783 2.6714 10.8284 3.42154C11.5786 4.17169 12 5.1891 12 6.24997C12 7.31083 11.5786 8.32825 10.8284 9.07839C10.0783 9.82854 9.06086 10.25 8 10.25C6.93913 10.25 5.92172 9.82854 5.17157 9.07839C4.42143 8.32825 4 7.31083 4 6.24997C4 5.1891 4.42143 4.17169 5.17157 3.42154C5.92172 2.6714 6.93913 2.24997 8 2.24997ZM8 4.24997C7.46956 4.24997 6.96086 4.46068 6.58578 4.83575C6.21071 5.21083 6 5.71954 6 6.24997C6 6.7804 6.21071 7.28911 6.58578 7.66418C6.96086 8.03925 7.46956 8.24997 8 8.24997C8.53043 8.24997 9.03914 8.03925 9.41421 7.66418C9.78928 7.28911 10 6.7804 10 6.24997C10 5.71954 9.78928 5.21083 9.41421 4.83575C9.03914 4.46068 8.53043 4.24997 8 4.24997ZM8 11.25C8.68 11.25 9.5 11.34 10.41 11.51L8.74 13.18L8 13.15C5.03 13.15 1.9 14.61 1.9 15.25V16.35H8.1L10 18.25H0V15.25C0 12.59 5.33 11.25 8 11.25Z" />
</svg>
  