<svg viewBox="0 0 23 20" fill="none"
  xmlns="http://www.w3.org/2000/svg">
  <path d="M15 10H16.5V12.82L18.94 14.23L18.19 15.53L15 13.69V10ZM16 8C14.6739 8 13.4021 8.52678 12.4645 9.46446C11.5268 10.4021 11 11.6739 11 13C11 14.3261 11.5268 15.5978 12.4645 16.5355C13.4021 17.4732 14.6739 18 16 18C17.3261 18 18.5978 17.4732 19.5355 16.5355C20.4732 15.5978 21 14.3261 21 13C21 11.6739 20.4732 10.4021 19.5355 9.46446C18.5978 8.52678 17.3261 8 16 8ZM16 6C17.8565 6 19.637 6.7375 20.9497 8.05025C22.2625 9.363 23 11.1435 23 13C23 14.8565 22.2625 16.637 20.9497 17.9497C19.637 19.2625 17.8565 20 16 20C13.21 20 10.8 18.36 9.67 16H0V13C0 10.34 5.33 9 8 9C8.6 9 9.34 9.07 10.12 9.2C11.36 7.28 13.53 6 16 6ZM9 13C9 12.3 9.1 11.62 9.29 11C8.87 10.93 8.43 10.9 8 10.9C5.03 10.9 1.9 12.36 1.9 13V14.1H9.09C9.03 13.74 9 13.37 9 13ZM8 0C9.06086 0 10.0783 0.421427 10.8284 1.17157C11.5786 1.92172 12 2.93913 12 4C12 5.06086 11.5786 6.07828 10.8284 6.82843C10.0783 7.57857 9.06086 8 8 8C6.93913 8 5.92172 7.57857 5.17157 6.82843C4.42143 6.07828 4 5.06086 4 4C4 2.93913 4.42143 1.92172 5.17157 1.17157C5.92172 0.421427 6.93913 0 8 0ZM8 1.9C7.44304 1.9 6.9089 2.12125 6.51507 2.51507C6.12125 2.9089 5.9 3.44304 5.9 4C5.9 4.55695 6.12125 5.0911 6.51507 5.48492C6.9089 5.87875 7.44304 6.1 8 6.1C8.55695 6.1 9.0911 5.87875 9.48492 5.48492C9.87875 5.0911 10.1 4.55695 10.1 4C10.1 3.44304 9.87875 2.9089 9.48492 2.51507C9.0911 2.12125 8.55695 1.9 8 1.9Z" />
</svg>
  