<svg width="514.15" height="104.24387161572399" viewBox="0 0 370 75.01747057827069"
  xmlns="http://www.w3.org/2000/svg"
  xmlns:xlink="http://www.w3.org/1999/xlink">
  <g id="SvgjsG3063" featurekey="5TMTKC-0" transform="matrix(1.145094954416621,0,0,1.145094954416621,-7.255322137893819,-15.897352588200977)">
    <g xmlns="http://www.w3.org/2000/svg">
      <path d="M91.652,71.917h-6.125c-0.637,0-1.154-0.517-1.154-1.155v-3.299c0-0.638,0.518-1.155,1.154-1.155h6.125   c1.109,0,2.012-0.838,2.012-1.869c0-1.03-0.902-1.869-2.012-1.869h-6.125c-0.637,0-1.154-0.517-1.154-1.154v-2.583h-3.686   c-4.615,0-8.785,2.711-10.377,6.747c-0.174,0.44-0.6,0.731-1.072,0.731c0,0-26.381,0.004-26.555,0.004   c-8.144,0-14.834-6.269-15.536-14.229H27.2c-0.061-0.555-0.096-1.123-0.096-1.69c0-0.237,0.007-0.472,0.018-0.706   c0.016-0.227,0.034-0.452,0.059-0.676h-0.013c0.701-7.959,7.393-14.227,15.537-14.227c8.616,0,15.62,7.005,15.62,15.608   c0,0.567-0.041,1.136-0.109,1.69h5.609c0.037-0.561,0.076-1.123,0.076-1.69c0-11.701-9.49-21.197-21.196-21.197   c-11.381,0-20.674,8.998-21.162,20.269c-0.023,0.411-0.041,0.823-0.041,1.238c0,11.702,9.49,21.197,21.182,21.197   c0.174,0,26.551,0.015,26.551,0.015c0.477,0,0.9,0.29,1.074,0.731c1.592,4.035,5.764,6.747,10.379,6.747h3.688l-0.002-2.585   c0-0.636,0.518-1.153,1.154-1.153h6.125c1.109,0,2.012-0.839,2.012-1.87S92.762,71.917,91.652,71.917z"></path>
      <path d="M23.034,67.448c-0.81,0-1.579,0.312-2.156,0.889l-3.841,3.849c-0.572,0.562-0.887,1.321-0.887,2.141   c-0.009,0.814,0.31,1.586,0.887,2.173c1.153,1.169,3.173,1.153,4.318-0.011l3.835-3.848c0.568-0.546,0.89-1.306,0.896-2.116   c0.006-0.829-0.31-1.604-0.896-2.188C24.629,67.767,23.864,67.448,23.034,67.448z"></path>
      <path d="M42.937,25.414c1.688,0,3.055-1.366,3.055-3.049v-5.431c0-1.686-1.367-3.051-3.055-3.051c-1.676,0-3.042,1.365-3.042,3.051   v5.431C39.895,24.048,41.261,25.414,42.937,25.414z"></path>
      <path d="M62.828,33.653c0.818,0,1.588-0.324,2.156-0.896l3.844-3.841c1.193-1.192,1.193-3.118,0-4.312   c-1.154-1.162-3.168-1.154-4.311,0l-3.846,3.836c-0.576,0.567-0.891,1.336-0.902,2.146c0,0.82,0.32,1.589,0.871,2.142   C61.207,33.311,62.004,33.653,62.828,33.653z"></path>
      <path d="M20.898,32.764c0.577,0.577,1.346,0.89,2.156,0.89c0.829,0,1.595-0.318,2.157-0.89c0.585-0.583,0.901-1.358,0.895-2.187   c-0.006-0.811-0.328-1.57-0.895-2.117l-3.836-3.848c-1.145-1.164-3.165-1.179-4.318-0.01c-0.578,0.587-0.896,1.358-0.887,2.171   c0,0.821,0.315,1.581,0.887,2.142L20.898,32.764z"></path>
      <path d="M17.87,50.487c0-1.68-1.367-3.047-3.055-3.047H9.378c-1.675,0-3.042,1.367-3.042,3.047c0,1.683,1.367,3.058,3.042,3.058   h5.437C16.503,53.545,17.87,52.17,17.87,50.487z"></path>
    </g>
  </g>
  <g id="SvgjsG3064" featurekey="7UBp9i-0" transform="matrix(3.3566059927627285,0,0,3.3566059927627285,118.38882745889725,-11.05854062519655)">
    <path d="M6.3 5.380000000000001 c1.7467 0 3.1366 0.40002 4.17 1.2 s1.55 1.9333 1.55 3.4 l-3.04 0 c-0.04 -0.72 -0.28334 -1.26 -0.73 -1.62 s-1.1367 -0.54 -2.07 -0.54 c-0.65334 0 -1.18 0.14334 -1.58 0.43 s-0.6 0.68332 -0.6 1.19 c0 0.41334 0.12334 0.71334 0.37 0.9 s0.59666 0.35332 1.05 0.49998 s1.2467 0.36 2.38 0.64 c1.1867 0.29334 2.1 0.61334 2.74 0.96 s1.1267 0.79 1.46 1.33 s0.5 1.2033 0.5 1.99 c0 0.90666 -0.24 1.7133 -0.72 2.42 s-1.18 1.2433 -2.1 1.61 s-1.96 0.55 -3.12 0.55 c-1.7733 0 -3.23 -0.44334 -4.37 -1.33 s-1.71 -2.1034 -1.71 -3.65 l0 -0.1 l3.04 0 c0 0.84 0.28666 1.49 0.86 1.95 s1.3333 0.69 2.28 0.69 c0.84 0 1.5167 -0.15 2.03 -0.45 s0.77 -0.74334 0.77 -1.33 c0 -0.38666 -0.14 -0.71332 -0.42 -0.97998 s-0.65334 -0.48332 -1.12 -0.64998 s-1.2533 -0.37666 -2.36 -0.63 c-1.28 -0.32 -2.2134 -0.66 -2.8 -1.02 s-1.0333 -0.79666 -1.34 -1.31 s-0.46 -1.13 -0.46 -1.85 c0 -0.89334 0.25666 -1.6733 0.77 -2.34 s1.1833 -1.16 2.01 -1.48 s1.68 -0.48 2.56 -0.48 z M16.9 9.66 l0 5.86 c0 0.8 0.12666 1.42 0.38 1.86 s0.73334 0.66 1.44 0.66 c0.78666 0 1.35 -0.23334 1.69 -0.7 s0.51 -1.2133 0.51 -2.24 l0 -5.44 l2.84 0 l0 10.34 l-2.7 0 l0 -1.44 l-0.06 0 c-0.70666 1.1467 -1.7667 1.72 -3.18 1.72 c-1.3467 0 -2.31 -0.34334 -2.89 -1.03 s-0.87 -1.7433 -0.87 -3.17 l0 -6.42 l2.84 0 z M31.86 9.38 c1.32 0 2.2766 0.33338 2.87 1 s0.89 1.7267 0.89 3.18 l0 6.44 l-2.84 0 l0 -5.86 c0 -0.85334 -0.13666 -1.4867 -0.41 -1.9 s-0.74334 -0.62 -1.41 -0.62 c-0.77334 0 -1.3333 0.23334 -1.68 0.7 s-0.52 1.2333 -0.52 2.3 l0 5.38 l-2.84 0 l0 -10.34 l2.7 0 l0 1.44 l0.06 0 c0.70666 -1.1467 1.7667 -1.72 3.18 -1.72 z M39.82 9.66 l1.9 7.02 l0.04 0 l1.72 -7.02 l2.76 0 l1.76 7 l0.04 0 l1.9 -7 l2.92 0 l-3.26 10.34 l-2.92 0 l-1.84 -6.94 l-0.04 0 l-1.76 6.94 l-2.94 0 l-3.28 -10.34 l3 0 z M58.82000000000001 9.38 c3.0134 0.01334 4.52 0.9933 4.52 2.94 l0 5.48 c0 1.0133 0.12 1.7467 0.36 2.2 l-2.88 0 c-0.10666 -0.32 -0.17332 -0.65334 -0.19998 -1 c-0.84 0.85334 -2 1.28 -3.48 1.28 c-1.08 0 -1.9367 -0.27334 -2.57 -0.82 s-0.95 -1.3067 -0.95 -2.28 c0 -0.94666 0.3 -1.68 0.9 -2.2 c0.61334 -0.54666 1.7267 -0.89332 3.34 -1.04 c1.1467 -0.12 1.8733 -0.27 2.18 -0.45 s0.46 -0.45666 0.46 -0.83 c0 -0.46666 -0.14 -0.81332 -0.42 -1.04 s-0.74666 -0.34 -1.4 -0.34 c-0.6 0 -1.0533 0.12334 -1.36 0.37 s-0.48666 0.64332 -0.54 1.19 l-2.84 0 c0.06666 -1.1333 0.53332 -1.9933 1.4 -2.58 s2.0266 -0.88 3.48 -0.88 z M56.46 17.06 c0 0.88 0.58 1.32 1.74 1.32 c1.52 -0.01334 2.2866 -0.79334 2.3 -2.34 l0 -1.1 c-0.22666 0.22666 -0.8 0.39332 -1.72 0.49998 c-0.8 0.09334 -1.3867 0.25668 -1.76 0.49002 s-0.56 0.61 -0.56 1.13 z M67.38000000000001 9.66 l2.34 7.08 l0.04 0 l2.26 -7.08 l2.94 0 l-4.32 11.64 c-0.30666 0.81334 -0.73 1.4067 -1.27 1.78 s-1.29 0.56 -2.25 0.56 c-0.41334 0 -1.0067 -0.03334 -1.78 -0.1 l0 -2.34 c0.50666 0.06666 1.0067 0.1 1.5 0.1 c0.4 0 0.71 -0.12334 0.93 -0.37 s0.33 -0.55666 0.33 -0.93 c0 -0.21334 -0.04 -0.42668 -0.12 -0.64002 l-3.64 -9.7 l3.04 0 z"></path>
  </g>
</svg>
