<svg width="514.15" height="112.54430458780512" viewBox="0 0 369.7247706422018 80.93050121717854"
  xmlns="http://www.w3.org/2000/svg"
  xmlns:xlink="http://www.w3.org/1999/xlink" stroke="white" fill="white">
  <defs id="SvgjsDefs9053"></defs>
  <g id="SvgjsG9054" featurekey="tOsHRK-0" transform="matrix(0.9009335076648469,0,0,0.9009335076648469,-5.038375459755707,-4.683406320824996)">
    <path xmlns="http://www.w3.org/2000/svg" d="M83.62,79.007c13.752-15.692,14.803-38.475,2.557-55.404C71.791,3.719,43.91-0.755,24.024,13.629  C14.392,20.597,8.05,30.9,6.165,42.639c-1.884,11.74,0.916,23.509,7.884,33.142c7.451,10.3,18.696,17.16,29.346,17.906  c0.295,0.02,0.586,0.029,0.874,0.029c2.867,0,5.363-1.021,7.26-2.98c3.05-3.153,4.038-8.225,3.666-11.853  c-0.043-0.411-0.077-0.896-0.119-1.449c-0.107-1.44-0.25-3.342-0.605-5.601c0.348-0.978,0.821-2.19,1.41-3.535  c0.173,0.006,0.408,0.011,0.707,0.011c3.163,0,12.944-0.601,19.317-7.617c4.261-4.693,6.517-12.332,5.749-19.46  c-0.568-5.263-2.676-9.439-5.936-11.76c-0.479-0.34-1.096-0.412-1.64-0.19c-0.543,0.222-0.935,0.706-1.037,1.283  c-0.346,1.935-3.647,5.433-5.617,6.692c-12.256,7.825-12.69,17.186-12.703,17.581c-0.029,0.945,0.711,1.734,1.656,1.765  c0.953,0,1.732-0.711,1.763-1.655c0.003-0.079,0.374-7.942,11.125-14.807c1.398-0.893,4.429-3.561,6.083-6.346  c1.53,1.883,2.559,4.611,2.904,7.805c0.668,6.2-1.247,12.793-4.879,16.793c-4.884,5.376-12.471,6.32-15.852,6.467  c2.385-4.617,5.718-9.482,9.426-10.818c0.89-0.32,1.351-1.301,1.03-2.188c-0.32-0.89-1.3-1.349-2.188-1.03  C60.018,52.9,55.628,60.589,53.174,65.98c-1.968-6.843-6.1-15.475-15.143-24.518c-0.668-0.667-1.751-0.667-2.42,0  c-0.667,0.668-0.667,1.751,0,2.42c4.026,4.025,7.016,7.96,9.248,11.669c-3.313-0.379-9.432-1.686-14.97-6.193  c-3.873-3.152-6.279-8.95-6.28-15.131c-0.001-4.298,1.169-8.099,3.19-10.557c2.047,2.212,5.038,3.619,7.343,4.703  c0.77,0.362,1.498,0.705,2.055,1.013c11.534,6.401,12.018,19.984,12.021,20.121c0.023,0.942,0.77,1.663,1.75,1.668  c0.944-0.021,1.693-0.804,1.671-1.749c-0.015-0.636-0.5-15.662-13.782-23.032c-0.658-0.365-1.435-0.73-2.259-1.118  c-2.585-1.216-5.801-2.729-7.122-5.052c-0.249-0.438-0.677-0.744-1.172-0.836c-0.493-0.091-1.005,0.037-1.396,0.355  c-3.583,2.918-5.722,8.333-5.721,14.483c0.001,7.293,2.82,13.941,7.542,17.783c7.914,6.442,16.734,7.066,19.092,7.112  c2.358,4.741,3.52,8.997,4.129,12.448c-0.132,0.489-0.037,0.986,0.226,1.384c0.276,1.892,0.396,3.492,0.487,4.732  c0.044,0.589,0.083,1.107,0.127,1.546c0.283,2.747-0.447,6.773-2.72,9.123c-1.381,1.426-3.212,2.077-5.437,1.916  c-9.666-0.675-19.939-6.998-26.812-16.499c-6.433-8.891-9.018-19.756-7.277-30.593C11.283,32.344,17.138,22.833,26.03,16.4  c18.356-13.28,44.095-9.149,57.375,9.208c11.143,15.402,10.353,36.046-1.821,50.506c-2.253-2.755-5.593-4.336-9.302-4.336  c-2.749,0-5.404,0.868-7.677,2.513c-0.766,0.554-0.938,1.623-0.383,2.389l1.711,2.365l-4.852,3.509  c-0.765,0.554-0.938,1.623-0.384,2.389c0.334,0.463,0.857,0.709,1.387,0.709c0.348,0,0.699-0.105,1.002-0.325l4.851-3.511  l4.778,6.604l-4.853,3.511c-0.765,0.554-0.937,1.623-0.384,2.389c0.335,0.462,0.857,0.708,1.388,0.708  c0.348,0,0.699-0.105,1.002-0.325l4.852-3.511l1.712,2.366c0.335,0.462,0.857,0.707,1.388,0.707c0.347,0,0.698-0.104,1.002-0.324  c4.84-3.503,6.589-9.642,4.584-14.733C83.481,79.146,83.555,79.082,83.62,79.007z M78.115,90.046L68.081,76.178  c1.314-0.644,2.74-0.979,4.2-0.979c2.841,0,5.381,1.262,6.973,3.461C81.746,82.106,81.171,86.906,78.115,90.046z"></path>
  </g>
  <g id="SvgjsG9055" featurekey="dVtZHI-0" transform="matrix(4.034896666558396,0,0,4.034896666558396,100.00000024049858,-10.78844815617905)">
    <path d="M6.56 5.699999999999999 l0.58 0 l0 14.3 l-0.58 0 l0 -2.58 c-0.1 -4.58 -2.44 -8.6 -5.98 -11.02 l0 13.6 l-0.58 0 l0 -14.3 l0.58 0 c2.86 1.82 5 4.64 5.98 7.98 l0 -7.98 z M12.908 20.28 c-1.66 0 -3.02 -1.36 -3.02 -3.04 l0 -11.54 l0.58 0 l0 11.54 c0 1.36 1.1 2.44 2.44 2.44 s2.44 -1.08 2.44 -2.44 l0 -11.54 l0.58 0 l0 11.54 c0 1.68 -1.36 3.04 -3.02 3.04 z M21.676000000000002 20.28 c-1.18 0 -2.3 -0.56 -3 -1.52 l0.46 -0.34 c0.6 0.8 1.54 1.28 2.54 1.28 c1.7 0 3.1 -1.4 3.1 -3.12 c0 -1.78 -1.36 -3.08 -2.68 -4.36 c-1.28 -1.2 -2.58 -2.46 -2.58 -4.12 c0 -1.48 1.22 -2.7 2.7 -2.7 c0.86 0 1.68 0.42 2.2 1.12 l-0.48 0.34 c-0.4 -0.54 -1.04 -0.88 -1.72 -0.88 c-1.16 0 -2.12 0.96 -2.12 2.12 c0 1.4 1.16 2.52 2.4 3.7 c1.4 1.36 2.86 2.76 2.86 4.78 c0 2.04 -1.66 3.7 -3.68 3.7 z M35.244 6.279999999999999 c-3.62 0 -6.54 2.94 -6.54 6.56 s2.92 6.56 6.54 6.56 s6.58 -2.94 6.58 -6.56 s-2.96 -6.56 -6.58 -6.56 z M35.244 5.699999999999999 c3.96 0 7.16 3.2 7.16 7.14 s-3.2 7.16 -7.16 7.16 c-3.94 0 -7.14 -3.22 -7.14 -7.16 s3.2 -7.14 7.14 -7.14 z M45.732 19.4 l2.36 0 l0 0.6 l-2.94 0 l0 -14.3 l0.58 0 l0 13.7 z M58.040000000000006 20 l-0.56 -2.26 l-5.48 0 l-0.56 2.26 l-0.6 0 l3.54 -14.3 l0.72 0 l3.54 14.3 l-0.6 0 z M52.14 17.14 l5.2 0 l-2.6 -10.44 z M66.848 10.58 c0 1.86 -1.02 3.48 -2.54 4.3 l2.54 5.12 l-0.66 0 l-2.42 -4.88 c-0.52 0.22 -1.1 0.34 -1.7 0.34 l-0.1 0 l0 4.54 l-0.58 0 l0 -14.3 l0.68 0 c2.64 0 4.78 2.18 4.78 4.88 z M61.968 6.279999999999999 l0 8.6 l0.1 0 c2.32 0 4.2 -1.94 4.2 -4.3 c0 -2.38 -1.88 -4.3 -4.2 -4.3 l-0.1 0 z"></path>
  </g>
</svg>