<svg width="514.15" height="108.06482585733454" viewBox="-13 0 383 80.49952018546948"
  xmlns="http://www.w3.org/2000/svg"
  xmlns:xlink="http://www.w3.org/1999/xlink">
  <g id="SvgjsG5019" featurekey="symbolFeature-0" transform="matrix(1.7499895692493364,0,0,1.7499895692493364,-12.999667519822598,-15.749906123244028)">
    <g xmlns="http://www.w3.org/2000/svg">
      <path d="M63.707,32.293l-18-18c-0.036-0.036-0.063-0.053-0.093-0.071C45.442,14.085,45.23,14,45,14h-2.586l3.293-3.293   c0.286-0.286,0.372-0.716,0.217-1.09C45.77,9.243,45.405,9,45,9H19c-0.266,0-0.52,0.105-0.707,0.293l-18,18   c-0.286,0.286-0.372,0.716-0.217,1.09C0.231,28.757,0.596,29,1,29h2.586l-3.293,3.293c-0.286,0.286-0.372,0.716-0.217,1.09   C0.231,33.757,0.596,34,1,34h2v20c0,0.553,0.447,1,1,1h56c0.553,0,1-0.447,1-1V34h2c0.404,0,0.769-0.243,0.924-0.617   C64.079,33.009,63.993,32.579,63.707,32.293z M39.294,14.292c-0.001,0.001-0.001,0.001-0.002,0.002L35.586,18h-6.172l7-7h6.172   L39.294,14.292z M11.414,27l7-7h6.172l-7,7H11.414z M33.586,11l-7,7h-6.172l7-7H33.586z M27.414,20h6.172l-7,7h-6.172L27.414,20z    M19.414,11h5.172l-7,7h-5.172L19.414,11z M10.414,20h5.172l-7,7H3.414L10.414,20z M6.414,29H27c0.266,0,0.519-0.106,0.707-0.293   L40.414,16h2.172l-16,16H3.414L6.414,29z M5,34h22h2v19H5V34z M41,53V39h8v14H41z M60,32c-0.553,0-1,0.447-1,1v20h-8V38   c0-0.553-0.447-1-1-1H40c-0.553,0-1,0.447-1,1v15h-8V33c0-0.553-0.447-1-1-1h-0.586L45,16.414L60.586,32H60z"></path>
      <path d="M45,24c-2.757,0-5,2.243-5,5s2.243,5,5,5c2.757,0,5-2.243,5-5S47.757,24,45,24z M45,32c-1.654,0-3-1.346-3-3   c0-1.654,1.346-3,3-3c1.654,0,3,1.346,3,3C48,30.655,46.655,32,45,32z"></path>
      <path d="M26,37H8c-0.553,0-1,0.447-1,1v10c0,0.553,0.447,1,1,1h18c0.553,0,1-0.447,1-1V38C27,37.448,26.553,37,26,37z M9,39h7v8H9   V39z M25,47h-7v-8h7V47z"></path>
    </g>
  </g>
  <g id="SvgjsG5020" featurekey="nameFeature-0" transform="matrix(2.6918509023982002,0,0,2.6918509023982002,131.99999967910637,-29.071997960777583)">
    <path d="M10.92 21.16 c0 3.72 -2.04 6.96 -5.08 8.6 l5.08 10.24 l-1.32 0 l-4.84 -9.76 c-1.04 0.44 -2.2 0.68 -3.4 0.68 l-0.2 0 l0 9.08 l-1.16 0 l0 -28.6 l1.36 0 c5.28 0 9.56 4.36 9.56 9.76 z M1.16 12.559999999999999 l0 17.2 l0.2 0 c4.64 0 8.4 -3.88 8.4 -8.6 c0 -4.76 -3.76 -8.6 -8.4 -8.6 l-0.2 0 z M28.955 40 l-1.12 -4.52 l-10.96 0 l-1.12 4.52 l-1.2 0 l7.08 -28.6 l1.44 0 l7.08 28.6 l-1.2 0 z M17.155 34.28 l10.4 0 l-5.2 -20.88 z M44.989999999999995 11.399999999999999 l1.28 0 l-5.4 10.84 l0 17.76 l-1.28 0 l0 -17.76 l-5.4 -10.84 l1.28 0 l4.76 9.52 z M56.30499999999999 40.56 c-2.36 0 -4.6 -1.12 -6 -3.04 l0.92 -0.68 c1.2 1.6 3.08 2.56 5.08 2.56 c3.4 0 6.2 -2.8 6.2 -6.24 c0 -3.56 -2.72 -6.16 -5.36 -8.72 c-2.56 -2.4 -5.16 -4.92 -5.16 -8.24 c0 -2.96 2.44 -5.4 5.4 -5.4 c1.72 0 3.36 0.84 4.4 2.24 l-0.96 0.68 c-0.8 -1.08 -2.08 -1.76 -3.44 -1.76 c-2.32 0 -4.24 1.92 -4.24 4.24 c0 2.8 2.32 5.04 4.8 7.4 c2.8 2.72 5.72 5.52 5.72 9.56 c0 4.08 -3.32 7.4 -7.36 7.4 z M73.46 12.600000000000001 l-4.6 0 l0 7.88 l4.6 0 l0 1.2 l-4.6 0 l0 17.12 l4.6 0 l0 1.2 l-5.76 0 l0 -28.6 l5.76 0 l0 1.2 z M88.41499999999999 21.16 c0 3.72 -2.04 6.96 -5.08 8.6 l5.08 10.24 l-1.32 0 l-4.84 -9.76 c-1.04 0.44 -2.2 0.68 -3.4 0.68 l-0.2 0 l0 9.08 l-1.16 0 l0 -28.6 l1.36 0 c5.28 0 9.56 4.36 9.56 9.76 z M78.65499999999999 12.559999999999999 l0 17.2 l0.2 0 c4.64 0 8.4 -3.88 8.4 -8.6 c0 -4.76 -3.76 -8.6 -8.4 -8.6 l-0.2 0 z"></path>
  </g>
</svg>